<?xml version="1.0" encoding="UTF-8" standalone="no"?>
<!-- Created with Inkscape (http://www.inkscape.org/) -->

<svg
   xmlns:osb="http://www.openswatchbook.org/uri/2009/osb"
   xmlns:dc="http://purl.org/dc/elements/1.1/"
   xmlns:cc="http://creativecommons.org/ns#"
   xmlns:rdf="http://www.w3.org/1999/02/22-rdf-syntax-ns#"
   xmlns:svg="http://www.w3.org/2000/svg"
   xmlns="http://www.w3.org/2000/svg"
   xmlns:sodipodi="http://sodipodi.sourceforge.net/DTD/sodipodi-0.dtd"
   xmlns:inkscape="http://www.inkscape.org/namespaces/inkscape"
   width="96"
   height="96"
   id="svg6517"
   version="1.1"
   inkscape:version="0.91 r13725"
   sodipodi:docname="elastisys-juju-icon.svg">
  <defs
     id="defs6519">
    <linearGradient
       id="Background">
      <stop
         id="stop4178"
         offset="0"
         style="stop-color:#b8b8b8;stop-opacity:1" />
      <stop
         id="stop4180"
         offset="1"
         style="stop-color:#c9c9c9;stop-opacity:1" />
    </linearGradient>
    <filter
       style="color-interpolation-filters:sRGB;"
       inkscape:label="Inner Shadow"
       id="filter1121">
      <feFlood
         flood-opacity="0.59999999999999998"
         flood-color="rgb(0,0,0)"
         result="flood"
         id="feFlood1123" />
      <feComposite
         in="flood"
         in2="SourceGraphic"
         operator="out"
         result="composite1"
         id="feComposite1125" />
      <feGaussianBlur
         in="composite1"
         stdDeviation="1"
         result="blur"
         id="feGaussianBlur1127" />
      <feOffset
         dx="0"
         dy="2"
         result="offset"
         id="feOffset1129" />
      <feComposite
         in="offset"
         in2="SourceGraphic"
         operator="atop"
         result="composite2"
         id="feComposite1131" />
    </filter>
    <filter
       style="color-interpolation-filters:sRGB;"
       inkscape:label="Drop Shadow"
       id="filter950">
      <feFlood
         flood-opacity="0.25"
         flood-color="rgb(0,0,0)"
         result="flood"
         id="feFlood952" />
      <feComposite
         in="flood"
         in2="SourceGraphic"
         operator="in"
         result="composite1"
         id="feComposite954" />
      <feGaussianBlur
         in="composite1"
         stdDeviation="1"
         result="blur"
         id="feGaussianBlur956" />
      <feOffset
         dx="0"
         dy="1"
         result="offset"
         id="feOffset958" />
      <feComposite
         in="SourceGraphic"
         in2="offset"
         operator="over"
         result="composite2"
         id="feComposite960" />
    </filter>
    <clipPath
       clipPathUnits="userSpaceOnUse"
       id="clipPath873">
      <g
         transform="matrix(0,-0.66666667,0.66604479,0,-258.25992,677.00001)"
         id="g875"
         inkscape:label="Layer 1"
         style="fill:#ff00ff;fill-opacity:1;stroke:none;display:inline">
        <path
           style="fill:#ff00ff;fill-opacity:1;stroke:none;display:inline"
           d="m 46.702703,898.22775 50.594594,0 C 138.16216,898.22775 144,904.06497 144,944.92583 l 0,50.73846 c 0,40.86071 -5.83784,46.69791 -46.702703,46.69791 l -50.594594,0 C 5.8378378,1042.3622 0,1036.525 0,995.66429 L 0,944.92583 C 0,904.06497 5.8378378,898.22775 46.702703,898.22775 Z"
           id="path877"
           inkscape:connector-curvature="0"
           sodipodi:nodetypes="sssssssss" />
      </g>
    </clipPath>
    <filter
       inkscape:collect="always"
       id="filter891"
       inkscape:label="Badge Shadow">
      <feGaussianBlur
         inkscape:collect="always"
         stdDeviation="0.71999962"
         id="feGaussianBlur893" />
    </filter>
    <linearGradient
       osb:paint="solid"
       id="linearGradient4274">
      <stop
         id="stop4276"
         offset="0"
         style="stop-color:#c4ecec;stop-opacity:1;" />
    </linearGradient>
    <clipPath
       id="clipPath16"
       clipPathUnits="userSpaceOnUse">
      <path
         inkscape:connector-curvature="0"
         id="path18"
         d="m 0,164.41 195.59,0 L 195.59,0 0,0 0,164.41 Z" />
    </clipPath>
  </defs>
  <sodipodi:namedview
     id="base"
     pagecolor="#ffffff"
     bordercolor="#666666"
     borderopacity="1.0"
     inkscape:pageopacity="0.0"
     inkscape:pageshadow="2"
     inkscape:zoom="4.0745362"
     inkscape:cx="-23.913189"
     inkscape:cy="46.306219"
     inkscape:document-units="px"
     inkscape:current-layer="layer1"
     showgrid="true"
     fit-margin-top="0"
     fit-margin-left="0"
     fit-margin-right="0"
     fit-margin-bottom="0"
     inkscape:window-width="1920"
     inkscape:window-height="1151"
     inkscape:window-x="0"
     inkscape:window-y="25"
     inkscape:window-maximized="1"
     showborder="true"
     showguides="true"
     inkscape:guide-bbox="true"
     inkscape:showpageshadow="false">
    <inkscape:grid
       type="xygrid"
       id="grid821" />
    <sodipodi:guide
       orientation="1,0"
       position="16,48"
       id="guide823" />
    <sodipodi:guide
       orientation="0,1"
       position="64,80"
       id="guide825" />
    <sodipodi:guide
       orientation="1,0"
       position="80,40"
       id="guide827" />
    <sodipodi:guide
       orientation="0,1"
       position="64,16"
       id="guide829" />
  </sodipodi:namedview>
  <metadata
     id="metadata6522">
    <rdf:RDF>
      <cc:Work
         rdf:about="">
        <dc:format>image/svg+xml</dc:format>
        <dc:type
           rdf:resource="http://purl.org/dc/dcmitype/StillImage" />
        <dc:title />
      </cc:Work>
    </rdf:RDF>
  </metadata>
  <g
     inkscape:label="BACKGROUND"
     inkscape:groupmode="layer"
     id="layer1"
     transform="translate(268,-635.29076)"
     style="display:inline">
    <path
       style="fill:#001871;fill-opacity:0.09411765;stroke:none;display:inline;opacity:1"
       d="m -268,700.15563 0,-33.72973 c 0,-27.24324 3.88785,-31.13513 31.10302,-31.13513 l 33.79408,0 c 27.21507,0 31.1029,3.89189 31.1029,31.13513 l 0,33.72973 c 0,27.24325 -3.88783,31.13514 -31.1029,31.13514 l -33.79408,0 C -264.11215,731.29077 -268,727.39888 -268,700.15563 Z"
       id="path6455"
       inkscape:connector-curvature="0"
       sodipodi:nodetypes="sssssssss" />
  </g>
  <g
     inkscape:groupmode="layer"
     id="layer3"
     inkscape:label="PLACE YOUR PICTOGRAM HERE"
     style="display:inline">
    <g
       transform="matrix(0.39572865,0,0,-0.39572865,-75.380497,123.5842)"
       inkscape:label="Elastisys_CMYK"
       id="g10">
      <g
         id="g4299">
        <g
           id="g4242"
           transform="matrix(0.79553794,0,0,0.79553794,319.63369,88.226526)">
          <g
             transform="translate(-97.84109,63.971816)"
             id="g20">
            <path
               inkscape:connector-curvature="0"
               id="path22"
               style="fill:#001b69;fill-opacity:1;fill-rule:nonzero;stroke:none"
               d="m 0,0 c 0.348,2.551 2.203,3.652 5.045,3.652 1.855,0 3.422,-0.695 3.422,-2.259 0,-1.508 -0.523,-2.379 -2.437,-3.016 L -0.522,-3.885 0,0 Z m -1.451,-11.133 0,0.695 8.004,2.725 c 5.392,1.856 8.349,4.061 8.349,9.627 0,4.524 -3.537,7.592 -9.277,7.592 -6.959,0 -11.599,-3.822 -12.353,-9.041 L -8.119,-9.51 c -0.115,-0.869 -0.174,-1.74 -0.174,-2.379 0,-4.695 3.073,-7.595 9.742,-7.595 l 9.174,0 0.858,5.925 c 0,0 -5.508,-0.011 -9.162,-0.011 -2.551,0 -3.77,0.812 -3.77,2.437" />
          </g>
          <g
             transform="translate(-67.77179,84.286216)"
             id="g24">
            <path
               inkscape:connector-curvature="0"
               id="path26"
               style="fill:#001b69;fill-opacity:1;fill-rule:nonzero;stroke:none"
               d="m 0,0 -11.03,0 -0.87,-5.914 4.189,0 -3.868,-27.971 -4.825,0 -0.869,-5.914 16.47,0 0.869,5.914 -4.803,0 L 0,0 Z" />
          </g>
          <g
             transform="translate(16.31711,85.079216)"
             id="g28">
            <path
               inkscape:connector-curvature="0"
               id="path30"
               style="fill:#001b69;fill-opacity:1;fill-rule:nonzero;stroke:none"
               d="m 0,0 -6.843,0 -1.043,-7.422 6.842,0 L 0,0 Z" />
          </g>
          <g
             transform="translate(14.69401,73.481516)"
             id="g32">
            <path
               inkscape:connector-curvature="0"
               id="path34"
               style="fill:#001b69;fill-opacity:1;fill-rule:nonzero;stroke:none"
               d="m 0,0 -11.078,0 -0.87,-5.914 4.235,0 -2.378,-17.166 -4.814,0 -0.869,-5.914 16.527,0 0.87,5.914 -4.871,0 L 0,0 Z" />
          </g>
          <g
             transform="translate(31.96351,73.481516)"
             id="g36">
            <path
               inkscape:connector-curvature="0"
               id="path38"
               style="fill:#001b69;fill-opacity:1;fill-rule:nonzero;stroke:none"
               d="m 0,0 -0.002,0 -0.01,0 c -6.552,0 -11.83,-2.957 -11.83,-8.697 0,-8.41 11.539,-7.366 11.539,-11.657 0,-2.435 -2.432,-2.724 -4.519,-2.726 -4.52,0.002 -8.717,0.014 -8.717,0.014 l -0.84,-5.928 c 0,0 4,-0.01 8.986,-0.01 7.656,0 12.177,3.838 12.177,9.52 0,8.64 -11.597,7.886 -11.597,11.599 0,1.274 1.334,2.028 4.231,2.028 3.248,0 7.761,0.025 7.761,0.025 L 8.03,0 0.001,0 0,0 Z" />
          </g>
          <g
             transform="translate(-28.19949,73.493316)"
             id="g40">
            <path
               inkscape:connector-curvature="0"
               id="path42"
               style="fill:#001b69;fill-opacity:1;fill-rule:nonzero;stroke:none"
               d="m 0,0 -0.002,0 -0.01,0 c -6.552,0 -11.83,-2.971 -11.83,-8.713 0,-8.408 11.539,-7.365 11.539,-11.656 0,-2.434 -2.432,-2.721 -4.519,-2.723 -4.52,0.002 -8.717,0.01 -8.717,0.01 l -0.854,-5.926 c 0,0 4.014,-0.008 9,-0.008 7.656,0 12.178,3.834 12.178,9.518 0,8.641 -11.598,7.887 -11.598,11.598 0,1.275 1.334,2.031 4.231,2.031 3.248,0 7.761,0.021 7.761,0.021 l 0.852,5.834 c 0,0 -3.571,0.012 -8.03,0.014 L 0,0 Z" />
          </g>
          <g
             transform="translate(78.91181,73.481516)"
             id="g44">
            <path
               inkscape:connector-curvature="0"
               id="path46"
               style="fill:#001b69;fill-opacity:1;fill-rule:nonzero;stroke:none"
               d="m 0,0 -0.002,0 -0.01,0 c -6.552,0 -11.83,-2.957 -11.83,-8.697 0,-8.41 11.539,-7.366 11.539,-11.657 0,-2.435 -2.431,-2.724 -4.519,-2.726 -4.52,0.002 -8.717,0.014 -8.717,0.014 l -0.867,-5.928 c 0,0 4.027,-0.008 9.013,-0.008 7.657,0 12.178,3.836 12.178,9.518 0,8.64 -11.598,7.886 -11.598,11.599 0,1.274 1.334,2.028 4.231,2.028 3.248,0 7.762,0.025 7.762,0.025 L 8.031,0 0.002,0 0,0 Z" />
          </g>
          <g
             transform="translate(61.04461,73.481516)"
             id="g48">
            <path
               inkscape:connector-curvature="0"
               id="path50"
               style="fill:#001b69;fill-opacity:1;fill-rule:nonzero;stroke:none"
               d="M 0,0 -8.756,-18.324 -12.352,0 -19.6,0 l 6.147,-27.313 -6.088,-12.119 6.9,0 L 7.25,0 0,0 Z" />
          </g>
          <g
             transform="translate(-49.59409,63.391716)"
             id="g52">
            <path
               inkscape:connector-curvature="0"
               id="path54"
               style="fill:#001b69;fill-opacity:1;fill-rule:nonzero;stroke:none"
               d="m 0,0 -1.391,-9.742 c -0.289,-1.971 -2.435,-3.248 -4.755,-3.248 -2.145,0 -3.653,1.045 -3.653,2.842 0,0.697 0.115,1.507 0.232,2.32 l 1.334,8.756 c 0.348,2.203 2.378,3.304 4.697,3.304 2.088,0 3.653,-1.101 3.653,-2.839 C 0.117,0.928 0.059,0.521 0,0 M 2.089,10.09 1.509,7.83 c 0,0 -1.972,2.272 -5.857,2.272 -5.625,0 -9.916,-3.956 -10.671,-9.405 l -1.45,-10.207 c -0.057,-0.521 -0.115,-1.101 -0.115,-1.566 0,-4.813 3.306,-7.828 8.234,-7.828 4.176,0 6.438,2.377 6.438,2.377 l -0.116,-2.377 6.147,0 4.117,28.994 -6.147,0 z" />
          </g>
          <g
             transform="translate(-9.19469,51.967916)"
             id="g56">
            <path
               inkscape:connector-curvature="0"
               id="path58"
               style="fill:#001b69;fill-opacity:1;fill-rule:nonzero;stroke:none"
               d="m 0,0 c 0,0.406 0.116,1.334 0.174,1.74 l 1.971,13.916 5.424,0 0.87,5.858 -5.423,0 0.869,6.322 -6.785,0 -0.87,-6.322 -5.277,0 -0.87,-5.858 5.278,0 -2.03,-14.554 C -6.785,0.232 -6.9,-0.754 -6.9,-1.334 c 0,-4.176 2.434,-6.156 8.349,-6.156 4.408,0 4.653,0.01 4.653,0.01 l 0.798,5.914 -3.537,0 C 0.639,-1.566 0,-1.102 0,0" />
          </g>
        </g>
        <g
           id="g4264"
           transform="matrix(0.99174074,0,0,0.99174074,312.07358,72.503051)">
          <g
             transform="translate(-37.53649,90.645616)"
             id="g60">
            <path
               inkscape:connector-curvature="0"
               id="path62"
               style="fill:#1082ce;fill-opacity:1;fill-rule:nonzero;stroke:none"
               d="M 0,0 C 1.689,11.17 9.569,50.721 36.729,50.721 38.3,50.721 39.95,50.59 41.62,50.32 50.189,48.46 55.6,42.48 55.399,35.09 55.08,23.179 40.31,7.039 0,0" />
          </g>
          <g
             transform="translate(2.64321,99.366316)"
             id="g64">
            <path
               inkscape:connector-curvature="0"
               id="path66"
               style="fill:#6e87cd;fill-opacity:1;fill-rule:nonzero;stroke:none"
               d="m 0,0 c 13.71,8.029 19.44,17.75 19.67,26.25 0.26,9.649 -6.55,17.389 -17.36,19.719 l -0.12,0.02 c -1.91,0.3 -3.81,0.46 -5.64,0.46 -14.51,0 -24.06,-9.24 -30.3,-20.32 7.97,18.98 21.53,37.33 44.14,37.33 2.35,0 4.8,-0.199 7.27,-0.59 C 30.61,60.06 38.771,51 38.46,39.77 38.12,27.299 27.21,11.709 0,0" />
          </g>
          <g
             transform="translate(75.38351,160.46592)"
             id="g68">
            <path
               inkscape:connector-curvature="0"
               id="path70"
               style="fill:#001b69;fill-opacity:1;fill-rule:nonzero;stroke:none"
               d="m 0,0 c -0.51,-18.7 -17.23,-42.2 -59.2,-59.35 2.88,1.639 5.58,3.36 8.099,5.17 13.401,9.61 20.96,21.23 21.271,32.73 0.37,13.489 -9.2,24.319 -24.37,27.59 l -0.12,0.02 c -2.73,0.43 -5.43,0.65 -8.031,0.65 -21.069,0 -38.019,-14.43 -49,-41.73 1.401,4.4 3,8.92 4.811,13.42 15.08,37.48 37.04,56.49 65.28,56.49 3.44,0 7.01,-0.291 10.619,-0.86 C -11.57,30 0.46,16.609 0,0" />
          </g>
        </g>
        <rect
           style="opacity:1;fill:none;fill-opacity:1;stroke:#000000;stroke-width:2.52698421;stroke-miterlimit:4;stroke-dasharray:none;stroke-dashoffset:0;stroke-opacity:0"
           id="rect4272"
           width="159.2"
           height="159.2"
           x="232.39999"
           y="-270.66443"
           transform="scale(1,-1)" />
      </g>
    </g>
  </g>
  <g
     inkscape:groupmode="layer"
     id="layer2"
     inkscape:label="BADGE"
     style="display:none"
     sodipodi:insensitive="true">
    <g
       style="display:inline"
       transform="translate(-340.00001,-581)"
       id="g4394"
       clip-path="none">
      <g
         id="g855">
        <g
           inkscape:groupmode="maskhelper"
           id="g870"
           clip-path="url(#clipPath873)"
           style="opacity:0.6;filter:url(#filter891)">
          <circle
             transform="matrix(1.4999992,0,0,1.4999992,-29.999795,-237.54282)"
             id="path844"
             style="color:#000000;display:inline;overflow:visible;visibility:visible;fill:#000000;fill-opacity:1;fill-rule:nonzero;stroke:none;stroke-width:4;marker:none;enable-background:accumulate"
             cx="252"
             cy="552.36218"
             r="12" />
        </g>
        <g
           id="g862">
          <circle
             style="color:#000000;display:inline;overflow:visible;visibility:visible;fill:#f5f5f5;fill-opacity:1;fill-rule:nonzero;stroke:none;stroke-width:4;marker:none;enable-background:accumulate"
             id="path4398"
             transform="matrix(1.4999992,0,0,1.4999992,-29.999795,-238.54282)"
             cx="252"
             cy="552.36218"
             r="12" />
          <circle
             transform="matrix(1.25,0,0,1.25,33,-100.45273)"
             id="path4400"
             style="color:#000000;display:inline;overflow:visible;visibility:visible;fill:#dd4814;fill-opacity:1;fill-rule:nonzero;stroke:none;stroke-width:4;marker:none;enable-background:accumulate"
             cx="252"
             cy="552.36218"
             r="12" />
          <path
             sodipodi:type="star"
             style="color:#000000;display:inline;overflow:visible;visibility:visible;fill:#f5f5f5;fill-opacity:1;fill-rule:nonzero;stroke:none;stroke-width:3;marker:none;enable-background:accumulate"
             id="path4459"
             sodipodi:sides="5"
             sodipodi:cx="666.19574"
             sodipodi:cy="589.50385"
             sodipodi:r1="7.2431178"
             sodipodi:r2="4.3458705"
             sodipodi:arg1="1.0471976"
             sodipodi:arg2="1.6755161"
             inkscape:flatsided="false"
             inkscape:rounded="0.1"
             inkscape:randomized="0"
             d="m 669.8173,595.77657 c -0.39132,0.22593 -3.62645,-1.90343 -4.07583,-1.95066 -0.44938,-0.0472 -4.05653,1.36297 -4.39232,1.06062 -0.3358,-0.30235 0.68963,-4.03715 0.59569,-4.47913 -0.0939,-0.44198 -2.5498,-3.43681 -2.36602,-3.8496 0.18379,-0.41279 4.05267,-0.59166 4.44398,-0.81759 0.39132,-0.22593 2.48067,-3.48704 2.93005,-3.4398 0.44938,0.0472 1.81505,3.67147 2.15084,3.97382 0.3358,0.30236 4.08294,1.2817 4.17689,1.72369 0.0939,0.44198 -2.9309,2.86076 -3.11469,3.27355 -0.18379,0.41279 0.0427,4.27917 -0.34859,4.5051 z"
             transform="matrix(1.511423,-0.16366377,0.16366377,1.511423,-755.37346,-191.93651)" />
        </g>
      </g>
    </g>
  </g>
</svg>
