<?xml version="1.0" encoding="UTF-8"?>
<svg width="100px" height="100px" viewBox="0 0 100 100" version="1.1" xmlns="http://www.w3.org/2000/svg" xmlns:xlink="http://www.w3.org/1999/xlink">
    <!-- Generator: Sketch 45.2 (43514) - http://www.bohemiancoding.com/sketch -->
    <title>charmscaler</title>
    <desc>Created with Sketch.</desc>
    <defs></defs>
    <g id="Page-1" stroke="none" stroke-width="1" fill="none" fill-rule="evenodd">
        <g id="charmscaler" fill-rule="nonzero">
            <path d="M50,0 C22.3857625,-1.69088438e-15 3.38176876e-15,22.3857625 0,50 C-3.38176876e-15,77.6142375 22.3857625,100 50,100 C63.2608245,100 75.9785201,94.732158 85.3553391,85.3553391 C94.732158,75.9785201 100,63.2608245 100,50 C100,22.3857625 77.6142375,1.69088438e-15 50,0 Z" id="path6455" fill="#6E87CD"></path>
            <path d="M19.9145684,50.9951694 C20.831297,57.0578448 25.1082785,78.5247093 39.8497525,78.5247093 C40.702435,78.5247093 41.5979958,78.4536072 42.5044119,78.3070609 C47.1553578,77.2975196 50.0922546,74.05179 49.983159,70.040763 C49.8100172,63.5758994 41.7933909,54.8156862 19.9145684,50.9951694" id="path62" fill="#FFFFFF" transform="translate(34.950333, 64.759939) scale(-1, 1) rotate(-180.000000) translate(-34.950333, -64.759939) "></path>
            <path d="M41.7226687,39.3481565 C49.1639651,43.7060098 52.2740036,48.98222 52.3988393,53.5957152 C52.539958,58.8328464 48.8437342,63.0338408 42.9764539,64.2984813 L42.9113222,64.3093365 C41.8746427,64.4721658 40.8433908,64.5590081 39.8501324,64.5590081 C31.9746248,64.5590081 26.7912272,59.5438674 23.404379,53.5300407 C27.7302092,63.8317041 35.0900909,73.7914261 47.3619881,73.7914261 C48.6374839,73.7914261 49.967256,73.683416 51.3078834,73.4711952 C58.336679,71.9465708 62.7661772,67.0291277 62.5973775,60.9338864 C62.4128377,54.1650748 56.491281,45.7033818 41.7226687,39.3481565" id="path66" fill="#FFFFFF" transform="translate(43.003208, 56.569791) scale(-1, 1) rotate(-180.000000) translate(-43.003208, -56.569791) "></path>
            <path d="M81.2034951,53.8504865 C80.9266854,43.7007971 71.8516689,30.9458398 49.071858,21.6374348 C50.6350187,22.5270252 52.1004819,23.4611223 53.4677048,24.4435254 C60.741287,29.6594888 64.8440411,35.9664081 65.0128408,42.2081957 C65.2136635,49.5295412 60.0194107,55.4076768 51.7856787,57.1830583 L51.720547,57.1939136 C50.2388009,57.4273022 48.7733377,57.5467103 47.3616082,57.5467103 C35.9261105,57.5467103 26.7262584,49.7146238 20.7661653,34.8971627 C21.5265779,37.285325 22.3944578,39.7386189 23.3774036,42.1810575 C31.5622868,62.5238575 43.4813874,72.8418038 58.8090467,72.8418038 C60.6761553,72.8418038 62.6138233,72.6838594 64.5726591,72.3750266 C74.923714,70.1334107 81.4531666,62.8652561 81.2034951,53.8504865" id="path70" fill="#FFFFFF" transform="translate(50.988288, 47.239619) scale(-1, 1) rotate(-180.000000) translate(-50.988288, -47.239619) "></path>
        </g>
    </g>
</svg>